<svg version="1.1" xmlns="http://www.w3.org/2000/svg" viewBox="0 0 122.88 122.88">
    <title>icon-measure-dist</title>
    <g>
    <path stroke="#000" stroke-width="3" d="m23.72533,26.87818l25.15033,-25.15033c0.48882,-0.48882 1.11954,-0.72534 1.75816,-0.72534c0.63073,0 1.26934,0.23652 1.75027,0.72534l66.77057,66.77057c0.48093,0.48093 0.72534,1.11954 0.72534,1.75816c0,0.63073 -0.24441,1.26146 -0.72534,1.74239l-0.00788,0.00788l0.00788,0.00788l-25.15033,25.15033c-0.48882,0.48882 -1.11954,0.72534 -1.75816,0.72534c-0.63073,0 -1.26934,-0.23652 -1.75816,-0.72534l-66.76268,-66.77845c-0.48882,-0.48882 -0.72534,-1.12743 -0.72534,-1.75027c0,-0.63861 0.23652,-1.26934 0.72534,-1.75816l0,0zm82.31016,34.95028l-11.4162,11.4162c-0.8909,0.8909 -2.23909,0.9934 -3.00385,0.22864c-0.76476,-0.76476 -0.66227,-2.11294 0.22864,-3.00385l11.4162,-11.4162l-9.20865,-9.21653l-5.4085,5.40062c-0.8909,0.8909 -2.23909,0.9934 -3.00385,0.22864c-0.76476,-0.76476 -0.66227,-2.11294 0.22864,-3.00385l5.4085,-5.4085l-8.45177,-8.436l-11.4162,11.4162c-0.8909,0.8909 -2.23909,0.9934 -3.00385,0.22864c-0.76476,-0.76476 -0.66227,-2.11294 0.22864,-3.00385l11.4162,-11.4162l-8.8854,-8.89328l-5.4085,5.40062c-0.8909,0.8909 -2.23909,0.9934 -3.00385,0.22864c-0.76476,-0.76476 -0.66227,-2.11294 0.22864,-3.00385l5.4085,-5.4085l-8.7829,-8.76714l-11.4162,11.4162c-0.8909,0.8909 -2.2312,0.98551 -2.99596,0.22864c-0.76476,-0.76476 -0.66227,-2.10506 0.22864,-2.99596l11.4162,-11.4162l-6.2048,-6.2048l-22.21744,22.20955l63.82979,63.82979l22.20955,-22.20955c-10.40703,-10.4228 1.99468,1.9868 -8.42023,-8.42812l0,0z"/>
    </g>
    <line stroke="#000" stroke-width="8" stroke-linecap="undefined" stroke-linejoin="undefined" id="svg_3" y2="113.54714" x2="81.44" y1="32.76143" x1="3.44" fill="none"/>
</svg>